<svg width="100" height="100" viewBox="0 0 100 100" fill="none" xmlns="http://www.w3.org/2000/svg">
<path d="M17.1875 64.0625H32.8125C35.3969 64.0625 37.5 61.9594 37.5 59.375C37.5 56.7906 35.3969 54.6875 32.8125 54.6875H17.1875C14.6031 54.6875 12.5 56.7906 12.5 59.375C12.5 61.9594 14.6031 64.0625 17.1875 64.0625ZM17.1875 57.8125H32.8125C33.2269 57.8125 33.6243 57.9771 33.9174 58.2701C34.2104 58.5632 34.375 58.9606 34.375 59.375C34.375 59.7894 34.2104 60.1868 33.9174 60.4799C33.6243 60.7729 33.2269 60.9375 32.8125 60.9375H17.1875C16.7731 60.9375 16.3757 60.7729 16.0826 60.4799C15.7896 60.1868 15.625 59.7894 15.625 59.375C15.625 58.9606 15.7896 58.5632 16.0826 58.2701C16.3757 57.9771 16.7731 57.8125 17.1875 57.8125Z" fill="#6B5E75"/>
<path d="M93.75 35.9375C96.3344 35.9375 98.4375 33.8344 98.4375 31.25V6.25C98.4375 3.66562 96.3344 1.5625 93.75 1.5625H82.8125C82.0853 1.56395 81.3683 1.73403 80.7179 2.05936C80.0675 2.3847 79.5014 2.85644 79.0641 3.4375L75.7812 7.8125H62.5C59.9156 7.8125 57.8125 9.91562 57.8125 12.5V18.75H43.6703C42.8719 9.14219 34.8125 1.5625 25 1.5625C14.6609 1.5625 6.25 9.97344 6.25 20.3125C6.25 30.1234 13.8281 38.1844 23.4375 38.9828V48.4719C10.8656 48.825 1.5625 53.3875 1.5625 59.375V89.0625C1.5625 95.1516 13.6391 98.4375 25 98.4375C36.3609 98.4375 48.4375 95.1516 48.4375 89.0625V79.6875H57.8922C58.6953 90.1578 67.4531 98.4375 78.125 98.4375C89.325 98.4375 98.4375 89.325 98.4375 78.125C98.4375 67.4531 90.1578 58.6953 79.6875 57.8922V35.9375H93.75ZM93.75 32.8125H62.5C61.6375 32.8125 60.9375 32.1109 60.9375 31.25V17.1875H95.3125V31.25C95.3125 32.1109 94.6125 32.8125 93.75 32.8125ZM62.5 10.9375H77.3438L81.5641 5.31094C81.8562 4.92031 82.3234 4.6875 82.8125 4.6875H93.75C94.6125 4.6875 95.3125 5.38906 95.3125 6.25V14.0625H60.9375V12.5C60.9375 11.6391 61.6375 10.9375 62.5 10.9375ZM9.375 20.3125C9.375 18.6797 9.62969 17.1062 10.0953 15.625H16.0969C15.8078 17.0844 15.625 18.6406 15.625 20.3125C15.625 21.9844 15.8078 23.5406 16.0984 25H10.0953C9.61777 23.4833 9.37486 21.9026 9.375 20.3125ZM18.75 20.3125C18.75 18.6266 18.9656 17.0688 19.3031 15.625H30.7031C31.0375 17.0672 31.25 18.625 31.25 20.3125C31.25 21.9984 31.0344 23.5562 30.6969 25H19.2969C18.9625 23.5578 18.75 22 18.75 20.3125ZM25.0031 5.26719C26.2172 6.50156 28.2906 8.96562 29.7188 12.5H20.2906C21.3881 9.81177 22.9874 7.35712 25.0031 5.26719ZM29.7094 28.125C28.6127 30.8137 27.0133 33.2685 24.9969 35.3578C22.9741 33.2729 21.3729 30.817 20.2812 28.125H29.7094ZM33.0734 28.125H38.5109C36.4537 31.6706 33.0894 34.2693 29.1391 35.3641C30.8383 33.1829 32.1675 30.7373 33.0734 28.125ZM40.625 20.3125C40.6259 21.9026 40.383 23.4835 39.9047 25H33.9031C34.1922 23.5406 34.375 21.9844 34.375 20.3125C34.375 18.6406 34.1922 17.0844 33.9016 15.625H39.9031C40.3719 17.1062 40.625 18.6797 40.625 20.3125ZM38.5109 12.5H33.0734C32.1675 9.8877 30.8383 7.44207 29.1391 5.26094C33.0894 6.35569 36.4537 8.95437 38.5109 12.5ZM20.8609 5.26094C19.1617 7.44207 17.8325 9.8877 16.9266 12.5H11.4891C13.5463 8.95437 16.9106 6.35569 20.8609 5.26094ZM11.4891 28.125H16.9266C17.8325 30.7373 19.1617 33.1829 20.8609 35.3641C16.9106 34.2693 13.5463 31.6706 11.4891 28.125ZM25 51.5625C36.9703 51.5625 45.3125 55.6797 45.3125 59.375C45.3125 63.0703 36.9703 67.1875 25 67.1875C13.0297 67.1875 4.6875 63.0703 4.6875 59.375C4.6875 55.6797 13.0297 51.5625 25 51.5625ZM4.6875 64.9734C8.6625 68.2141 16.0906 70.3125 25 70.3125C33.9094 70.3125 41.3375 68.2141 45.3125 64.9734V70.3125C45.3125 72.8609 37.4 76.5625 25 76.5625C12.6 76.5625 4.6875 72.8609 4.6875 70.3125V64.9734ZM4.6875 75.1672C9.01094 78.1281 17.1734 79.6875 25 79.6875C32.8266 79.6875 40.9891 78.1281 45.3125 75.1672V79.6875C45.3125 82.2359 37.4 85.9375 25 85.9375C12.6 85.9375 4.6875 82.2359 4.6875 79.6875V75.1672ZM25 95.3125C12.6 95.3125 4.6875 91.6109 4.6875 89.0625V84.5422C9.01094 87.5031 17.1734 89.0625 25 89.0625C32.8266 89.0625 40.9891 87.5031 45.3125 84.5422V89.0625C45.3125 91.6109 37.4 95.3125 25 95.3125ZM66.1719 90.45C67.6016 85.9234 71.7406 82.8125 76.5625 82.8125H79.6875C82.0084 82.8074 84.2698 83.5464 86.1399 84.921C88.01 86.2956 89.3902 88.2334 90.0781 90.45C86.8803 93.5675 82.591 95.3123 78.125 95.3123C73.659 95.3123 69.3697 93.5675 66.1719 90.45ZM78.125 79.6875C74.6781 79.6875 71.875 76.8844 71.875 73.4375C71.875 69.9906 74.6781 67.1875 78.125 67.1875C81.5719 67.1875 84.375 69.9906 84.375 73.4375C84.375 76.8844 81.5719 79.6875 78.125 79.6875ZM95.3125 78.125C95.3125 81.6719 94.2312 84.9703 92.3844 87.7109C91.5914 86.025 90.4687 84.5151 89.0826 83.2702C87.6965 82.0252 86.0751 81.0706 84.3141 80.4625C85.3142 79.5855 86.1157 78.5052 86.6651 77.2938C87.2145 76.0824 87.4991 74.7677 87.5 73.4375C87.5 68.2672 83.2953 64.0625 78.125 64.0625C72.9547 64.0625 68.75 68.2672 68.75 73.4375C68.75 76.2344 69.9875 78.7422 71.9375 80.4625C70.1769 81.0714 68.5558 82.0263 67.1698 83.2711C65.7838 84.516 64.6609 86.0255 63.8672 87.7109C61.9543 84.8803 60.9338 81.5413 60.9375 78.125C60.9375 68.6484 68.6484 60.9375 78.125 60.9375C87.6016 60.9375 95.3125 68.6484 95.3125 78.125ZM76.5625 57.8922C66.6094 58.6547 58.6547 66.6094 57.8922 76.5625H48.4375V59.375C48.4375 53.3875 39.1344 48.825 26.5625 48.4719V38.9828C35.6547 38.2266 42.9156 30.9672 43.6703 21.875H57.8125V31.25C57.8125 33.8344 59.9156 35.9375 62.5 35.9375H76.5625V57.8922Z" fill="#6B5E75"/>
<path d="M89.0625 7.8125H92.1875V10.9375H89.0625V7.8125ZM82.8125 7.8125H85.9375V10.9375H82.8125V7.8125ZM64.0625 26.5625H67.1875V29.6875H64.0625V26.5625ZM70.3125 26.5625H73.4375V29.6875H70.3125V26.5625ZM76.5625 26.5625H79.6875V29.6875H76.5625V26.5625ZM26.5625 18.75H29.6875V21.875H26.5625V18.75ZM20.3125 18.75H23.4375V21.875H20.3125V18.75Z" fill="#6B5E75"/>
</svg>
