<svg width="100" height="100" viewBox="0 0 100 100" fill="none" xmlns="http://www.w3.org/2000/svg">
<path d="M42.1875 17.1875H45.3125V20.3125H42.1875V17.1875ZM82.8125 54.6875H85.9375V57.8125H82.8125V54.6875ZM54.6875 79.6875H57.8125V82.8125H54.6875V79.6875ZM42.1875 84.375H45.3125V87.5H42.1875V84.375ZM17.1875 48.4375H20.3125V51.5625H17.1875V48.4375ZM54.6875 17.1875H57.8125V20.3125H54.6875V17.1875ZM79.6875 42.1875H82.8125V45.3125H79.6875V42.1875ZM71.875 26.5625H75V29.6875H71.875V26.5625ZM25 26.5625H28.125V29.6875H25V26.5625ZM71.875 70.3125H75V73.4375H71.875V70.3125ZM25 70.3125H28.125V73.4375H25V70.3125ZM49.8156 48.4375C48.7229 48.4728 47.677 48.8897 46.8596 49.6158C46.0422 50.342 45.505 51.3315 45.3412 52.4125C45.1774 53.4935 45.3975 54.5977 45.9631 55.5334C46.5287 56.469 47.4042 57.177 48.4375 57.5344V60.9375H51.5625V57.5234C52.6211 57.1527 53.5112 56.4138 54.0705 55.4415C54.6298 54.4692 54.8209 53.3283 54.6092 52.2268C54.3974 51.1253 53.7968 50.1366 52.9168 49.441C52.0369 48.7454 50.9363 48.3893 49.8156 48.4375ZM51.5625 53.0641C51.5707 53.2692 51.5383 53.4739 51.4674 53.6665C51.3964 53.8591 51.2882 54.0358 51.1489 54.1866C51.0096 54.3373 50.8419 54.4592 50.6555 54.5451C50.4691 54.6311 50.2676 54.6795 50.0625 54.6875C49.8571 54.6955 49.6521 54.6629 49.4594 54.5916C49.2666 54.5203 49.0898 54.4116 48.9391 54.2719C48.7119 54.0622 48.5521 53.7899 48.4798 53.4893C48.4075 53.1888 48.4259 52.8736 48.5328 52.5835C48.6397 52.2935 48.8302 52.0416 49.0803 51.8599C49.3303 51.6781 49.6286 51.5747 49.9375 51.5625H50C50.4038 51.5622 50.792 51.7182 51.0833 51.9978C51.3746 52.2775 51.5463 52.6606 51.5625 53.0641Z" fill="#6B5E75"/>
<path d="M57.8125 44.0375V42.1875C57.8125 40.1155 56.9894 38.1284 55.5243 36.6632C54.0591 35.1981 52.072 34.375 50 34.375C47.928 34.375 45.9409 35.1981 44.4757 36.6632C43.0106 38.1284 42.1875 40.1155 42.1875 42.1875V44.0375C41.2767 44.3595 40.4876 44.955 39.9283 45.7427C39.3689 46.5303 39.0665 47.4715 39.0625 48.4375V60.9375C39.0625 62.1807 39.5564 63.373 40.4354 64.2521C41.3145 65.1311 42.5068 65.625 43.75 65.625H56.25C57.4932 65.625 58.6855 65.1311 59.5646 64.2521C60.4436 63.373 60.9375 62.1807 60.9375 60.9375V48.4375C60.9335 47.4715 60.6311 46.5303 60.0717 45.7427C59.5124 44.955 58.7233 44.3595 57.8125 44.0375ZM45.3125 42.1875C45.3125 40.9443 45.8064 39.752 46.6854 38.8729C47.5645 37.9939 48.7568 37.5 50 37.5C51.2432 37.5 52.4355 37.9939 53.3146 38.8729C54.1936 39.752 54.6875 40.9443 54.6875 42.1875V43.75H45.3125V42.1875ZM57.8125 60.9375C57.8125 61.3519 57.6479 61.7493 57.3549 62.0424C57.0618 62.3354 56.6644 62.5 56.25 62.5H43.75C43.3356 62.5 42.9382 62.3354 42.6451 62.0424C42.3521 61.7493 42.1875 61.3519 42.1875 60.9375V48.4375C42.1875 48.0231 42.3521 47.6257 42.6451 47.3326C42.9382 47.0396 43.3356 46.875 43.75 46.875H56.25C56.6644 46.875 57.0618 47.0396 57.3549 47.3326C57.6479 47.6257 57.8125 48.0231 57.8125 48.4375V60.9375Z" fill="#6B5E75"/>
<path d="M92.1875 64.0625C91.4914 64.0652 90.805 64.2254 90.1797 64.5312L86.5859 60.9375H71.875V57.8125H79.6875V54.6875H71.875V51.5625H80.0563L88.9422 47.1187C89.721 47.8647 90.7336 48.3187 91.8086 48.4039C92.8836 48.489 93.9551 48.2002 94.8416 47.5862C95.7282 46.9722 96.3754 46.0708 96.6737 45.0345C96.972 43.9982 96.9031 42.8906 96.4787 41.8992C96.0543 40.9079 95.3004 40.0936 94.3446 39.5941C93.3888 39.0947 92.2899 38.9408 91.2337 39.1585C90.1775 39.3763 89.2289 39.9522 88.5486 40.7889C87.8682 41.6255 87.4978 42.6716 87.5 43.75C87.5073 43.9401 87.5266 44.1295 87.5578 44.3172L79.3187 48.4375H71.875V45.3125H76.5625V42.1875H71.875V39.0625H78.7719L83.9281 33.9062C84.5539 34.2123 85.2409 34.3725 85.9375 34.375C86.8646 34.375 87.7709 34.1001 88.5417 33.585C89.3126 33.0699 89.9134 32.3379 90.2682 31.4813C90.623 30.6248 90.7158 29.6823 90.5349 28.773C90.3541 27.8637 89.9076 27.0285 89.2521 26.3729C88.5965 25.7174 87.7613 25.2709 86.852 25.0901C85.9427 24.9092 85.0002 25.002 84.1437 25.3568C83.2871 25.7116 82.5551 26.3124 82.04 27.0833C81.5249 27.8541 81.25 28.7604 81.25 29.6875C81.2527 30.3836 81.4129 31.07 81.7188 31.6953L77.4781 35.9375H71.875C71.8725 33.8663 71.0486 31.8806 69.584 30.416C68.1194 28.9514 66.1337 28.1275 64.0625 28.125V24.0844L72.9922 15.1562C73.6175 15.462 74.3039 15.6223 75 15.625C75.9271 15.625 76.8334 15.3501 77.6042 14.835C78.3751 14.3199 78.9759 13.5879 79.3307 12.7313C79.6855 11.8748 79.7783 10.9323 79.5974 10.023C79.4166 9.11373 78.9701 8.2785 78.3146 7.62294C77.659 6.96738 76.8238 6.52094 75.9145 6.34007C75.0052 6.1592 74.0627 6.25203 73.2062 6.60682C72.3496 6.9616 71.6176 7.56241 71.1025 8.33327C70.5874 9.10412 70.3125 10.0104 70.3125 10.9375C70.3152 11.6336 70.4754 12.32 70.7812 12.9453L60.9375 22.7891V28.125H57.8125V23.4375H54.6875V28.125H51.5625V16.9C52.605 16.5314 53.4837 15.8061 54.0432 14.8524C54.6027 13.8986 54.807 12.7778 54.62 11.6879C54.433 10.5981 53.8668 9.60943 53.0213 8.89671C52.1759 8.18399 51.1058 7.79308 50 7.79308C48.8942 7.79308 47.8241 8.18399 46.9787 8.89671C46.1332 9.60943 45.567 10.5981 45.38 11.6879C45.193 12.7778 45.3973 13.8986 45.9568 14.8524C46.5163 15.8061 47.395 16.5314 48.4375 16.9V28.125H45.3125V23.4375H42.1875V28.125H39.0625V16.5406L32.3438 9.82188C32.6498 9.19609 32.81 8.5091 32.8125 7.8125C32.8125 6.8854 32.5376 5.97912 32.0225 5.20827C31.5074 4.43741 30.7754 3.8366 29.9188 3.48182C29.0623 3.12703 28.1198 3.0342 27.2105 3.21507C26.3012 3.39594 25.466 3.84238 24.8104 4.49794C24.1549 5.1535 23.7084 5.98873 23.5276 6.89802C23.3467 7.8073 23.4395 8.7498 23.7943 9.60633C24.1491 10.4629 24.7499 11.1949 25.5208 11.71C26.2916 12.2251 27.1979 12.5 28.125 12.5C28.8211 12.4973 29.5075 12.337 30.1328 12.0313L35.9375 17.8344V28.125C33.8663 28.1275 31.8806 28.9514 30.416 30.416C28.9514 31.8806 28.1275 33.8663 28.125 35.9375H22.5219L18.2813 31.6953C18.5871 31.07 18.7473 30.3836 18.75 29.6875C18.75 28.7604 18.4751 27.8541 17.96 27.0833C17.4449 26.3124 16.7129 25.7116 15.8563 25.3568C14.9998 25.002 14.0573 24.9092 13.148 25.0901C12.2387 25.2709 11.4035 25.7174 10.7479 26.3729C10.0924 27.0285 9.64594 27.8637 9.46507 28.773C9.2842 29.6823 9.37703 30.6248 9.73182 31.4813C10.0866 32.3379 10.6874 33.0699 11.4583 33.585C12.2291 34.1001 13.1354 34.375 14.0625 34.375C14.7586 34.3723 15.445 34.212 16.0703 33.9062L21.2266 39.0625H28.125V42.1875H18.1844L10 49.0062C9.32926 48.6382 8.57754 48.4428 7.8125 48.4375C6.8854 48.4375 5.97912 48.7124 5.20827 49.2275C4.43741 49.7425 3.8366 50.4746 3.48182 51.3312C3.12703 52.1877 3.0342 53.1302 3.21507 54.0395C3.39594 54.9488 3.84238 55.784 4.49794 56.4396C5.1535 57.0951 5.98873 57.5416 6.89802 57.7224C7.8073 57.9033 8.7498 57.8105 9.60633 57.4557C10.4629 57.1009 11.1949 56.5001 11.71 55.7292C12.2251 54.9584 12.5 54.0521 12.5 53.125C12.5011 52.4979 12.3751 51.8771 12.1297 51.3L19.3156 45.3125H28.125V48.4375H23.4375V51.5625H28.125V54.6875H14.0625V57.8125H28.125V60.9375H19.4766L13.1797 70.3812C12.9551 70.3416 12.7279 70.3187 12.5 70.3125C11.413 70.3025 10.3557 70.6672 9.5059 71.3451C8.65613 72.0231 8.06575 72.973 7.83405 74.0351C7.60235 75.0972 7.74346 76.2067 8.23364 77.177C8.72383 78.1473 9.5332 78.9191 10.5256 79.3628C11.518 79.8065 12.633 79.8949 13.6829 79.6131C14.7328 79.3313 15.6537 78.6966 16.2906 77.8157C16.9276 76.9348 17.2417 75.8614 17.1803 74.776C17.1188 73.6907 16.6855 72.6596 15.9531 71.8562L21.1484 64.0625H28.125C28.1275 66.1337 28.9514 68.1194 30.416 69.584C31.8806 71.0486 33.8663 71.8725 35.9375 71.875V82.1656L30.1328 87.9687C29.5075 87.6629 28.8211 87.5027 28.125 87.5C27.1979 87.5 26.2916 87.7749 25.5208 88.29C24.7499 88.805 24.1491 89.5371 23.7943 90.3937C23.4395 91.2502 23.3467 92.1927 23.5276 93.102C23.7084 94.0113 24.1549 94.8465 24.8104 95.502C25.466 96.1576 26.3012 96.604 27.2105 96.7849C28.1198 96.9658 29.0623 96.873 29.9188 96.5182C30.7754 96.1634 31.5074 95.5626 32.0225 94.7917C32.5376 94.0209 32.8125 93.1146 32.8125 92.1875C32.8098 91.4914 32.6496 90.805 32.3438 90.1797L39.0625 83.4609V71.875H42.1875V81.25H45.3125V71.875H48.4375V85.2406L57.9281 91.1781C57.6731 92.2728 57.8139 93.4225 58.3258 94.4232C58.8376 95.4239 59.6873 96.211 60.7242 96.645C61.7611 97.0789 62.9182 97.1315 63.9902 96.7936C65.0623 96.4557 65.98 95.749 66.5806 94.7989C67.1812 93.8488 67.4259 92.7167 67.2714 91.6033C67.1168 90.49 66.5729 89.4674 65.7362 88.7168C64.8995 87.9663 63.824 87.5363 62.7004 87.5032C61.5769 87.4701 60.4779 87.836 59.5984 88.5359L51.5625 83.5094V71.875H54.6875V76.5625H57.8125V71.875H60.9375V84.375H72.1625C72.5311 85.4175 73.2564 86.2962 74.2101 86.8557C75.1639 87.4152 76.2847 87.6195 77.3746 87.4325C78.4644 87.2455 79.4531 86.6792 80.1658 85.8338C80.8785 84.9884 81.2694 83.9183 81.2694 82.8125C81.2694 81.7067 80.8785 80.6366 80.1658 79.7911C79.4531 78.9457 78.4644 78.3795 77.3746 78.1925C76.2847 78.0055 75.1639 78.2098 74.2101 78.7693C73.2564 79.3288 72.5311 80.2075 72.1625 81.25H64.0625V71.875C66.1337 71.8725 68.1194 71.0486 69.584 69.584C71.0486 68.1194 71.8725 66.1337 71.875 64.0625H85.2906L87.9688 66.7422C87.6629 67.3675 87.5027 68.0539 87.5 68.75C87.5 69.6771 87.7749 70.5834 88.29 71.3542C88.8051 72.1251 89.5371 72.7259 90.3937 73.0807C91.2502 73.4355 92.1927 73.5283 93.102 73.3474C94.0113 73.1665 94.8465 72.7201 95.5021 72.0646C96.1576 71.409 96.6041 70.5738 96.7849 69.6645C96.9658 68.7552 96.873 67.8127 96.5182 66.9562C96.1634 66.0996 95.5626 65.3675 94.7917 64.8525C94.0209 64.3374 93.1146 64.0625 92.1875 64.0625ZM92.1875 42.1875C92.4965 42.1875 92.7986 42.2791 93.0556 42.4508C93.3125 42.6225 93.5128 42.8665 93.6311 43.1521C93.7493 43.4376 93.7803 43.7517 93.72 44.0548C93.6597 44.3579 93.5109 44.6363 93.2924 44.8549C93.0738 45.0734 92.7954 45.2222 92.4923 45.2825C92.1892 45.3428 91.8751 45.3118 91.5896 45.1936C91.304 45.0753 91.06 44.875 90.8883 44.6181C90.7166 44.3611 90.625 44.059 90.625 43.75C90.625 43.3356 90.7896 42.9382 91.0826 42.6451C91.3757 42.3521 91.7731 42.1875 92.1875 42.1875ZM85.9375 28.125C86.2465 28.125 86.5486 28.2166 86.8056 28.3883C87.0625 28.56 87.2628 28.804 87.3811 29.0896C87.4993 29.3751 87.5303 29.6892 87.47 29.9923C87.4097 30.2954 87.2609 30.5738 87.0424 30.7924C86.8238 31.0109 86.5454 31.1597 86.2423 31.22C85.9392 31.2803 85.6251 31.2493 85.3396 31.1311C85.054 31.0128 84.81 30.8125 84.6383 30.5556C84.4666 30.2986 84.375 29.9965 84.375 29.6875C84.375 29.2731 84.5396 28.8757 84.8326 28.5826C85.1257 28.2896 85.5231 28.125 85.9375 28.125ZM75 9.375C75.309 9.375 75.6111 9.46664 75.8681 9.63833C76.125 9.81002 76.3253 10.054 76.4436 10.3396C76.5618 10.6251 76.5928 10.9392 76.5325 11.2423C76.4722 11.5454 76.3234 11.8238 76.1049 12.0424C75.8863 12.2609 75.6079 12.4097 75.3048 12.47C75.0017 12.5303 74.6876 12.4993 74.4021 12.3811C74.1165 12.2628 73.8725 12.0625 73.7008 11.8056C73.5291 11.5486 73.4375 11.2465 73.4375 10.9375C73.4375 10.5231 73.6021 10.1257 73.8951 9.83265C74.1882 9.53962 74.5856 9.375 75 9.375ZM50 10.9375C50.309 10.9375 50.6111 11.0291 50.8681 11.2008C51.125 11.3725 51.3253 11.6165 51.4436 11.9021C51.5618 12.1876 51.5928 12.5017 51.5325 12.8048C51.4722 13.1079 51.3234 13.3863 51.1049 13.6049C50.8863 13.8234 50.6079 13.9722 50.3048 14.0325C50.0017 14.0928 49.6876 14.0618 49.4021 13.9436C49.1166 13.8253 48.8725 13.625 48.7008 13.3681C48.5291 13.1111 48.4375 12.809 48.4375 12.5C48.4375 12.0856 48.6021 11.6882 48.8951 11.3951C49.1882 11.1021 49.5856 10.9375 50 10.9375ZM26.5625 7.8125C26.5625 7.50347 26.6541 7.20138 26.8258 6.94442C26.9975 6.68747 27.2416 6.4872 27.5271 6.36894C27.8126 6.25068 28.1267 6.21974 28.4298 6.28002C28.7329 6.34031 29.0113 6.48913 29.2299 6.70765C29.4484 6.92617 29.5972 7.20458 29.6575 7.50767C29.7178 7.81077 29.6868 8.12493 29.5686 8.41044C29.4503 8.69595 29.25 8.93998 28.9931 9.11167C28.7361 9.28336 28.434 9.375 28.125 9.375C27.7106 9.375 27.3132 9.21038 27.0201 8.91736C26.7271 8.62433 26.5625 8.2269 26.5625 7.8125ZM12.5 29.6875C12.5 29.3785 12.5916 29.0764 12.7633 28.8194C12.935 28.5625 13.179 28.3622 13.4646 28.2439C13.7501 28.1257 14.0642 28.0947 14.3673 28.155C14.6704 28.2153 14.9488 28.3641 15.1674 28.5826C15.3859 28.8012 15.5347 29.0796 15.595 29.3827C15.6553 29.6858 15.6243 29.9999 15.5061 30.2854C15.3878 30.5709 15.1875 30.815 14.9306 30.9867C14.6736 31.1584 14.3715 31.25 14.0625 31.25C13.6481 31.25 13.2507 31.0854 12.9576 30.7924C12.6646 30.4993 12.5 30.1019 12.5 29.6875ZM7.8125 54.6875C7.50347 54.6875 7.20138 54.5959 6.94442 54.4242C6.68747 54.2525 6.4872 54.0084 6.36894 53.7229C6.25068 53.4374 6.21974 53.1233 6.28003 52.8202C6.34031 52.5171 6.48913 52.2387 6.70765 52.0201C6.92617 51.8016 7.20458 51.6528 7.50767 51.5925C7.81077 51.5322 8.12494 51.5632 8.41044 51.6814C8.69595 51.7997 8.93998 52 9.11167 52.2569C9.28336 52.5139 9.375 52.816 9.375 53.125C9.375 53.5394 9.21038 53.9368 8.91736 54.2298C8.62433 54.5229 8.2269 54.6875 7.8125 54.6875ZM12.5 76.5625C12.191 76.5625 11.8889 76.4708 11.6319 76.2992C11.375 76.1275 11.1747 75.8834 11.0564 75.5979C10.9382 75.3124 10.9072 74.9983 10.9675 74.6952C11.0278 74.3921 11.1766 74.1137 11.3951 73.8951C11.6137 73.6766 11.8921 73.5278 12.1952 73.4675C12.4983 73.4072 12.8124 73.4382 13.0979 73.5564C13.3835 73.6747 13.6275 73.875 13.7992 74.1319C13.9709 74.3889 14.0625 74.691 14.0625 75C14.0625 75.4144 13.8979 75.8118 13.6049 76.1048C13.3118 76.3979 12.9144 76.5625 12.5 76.5625ZM28.125 93.75C27.816 93.75 27.5139 93.6583 27.2569 93.4867C27 93.315 26.7997 93.0709 26.6814 92.7854C26.5632 92.4999 26.5322 92.1858 26.5925 91.8827C26.6528 91.5796 26.8016 91.3011 27.0201 91.0826C27.2387 90.8641 27.5171 90.7153 27.8202 90.655C28.1233 90.5947 28.4374 90.6257 28.7229 90.7439C29.0085 90.8622 29.2525 91.0625 29.4242 91.3194C29.5959 91.5764 29.6875 91.8785 29.6875 92.1875C29.6875 92.6019 29.5229 92.9993 29.2299 93.2923C28.9368 93.5854 28.5394 93.75 28.125 93.75ZM62.5 90.625C62.809 90.625 63.1111 90.7166 63.3681 90.8883C63.625 91.06 63.8253 91.304 63.9436 91.5895C64.0618 91.8751 64.0928 92.1892 64.0325 92.4923C63.9722 92.7954 63.8234 93.0738 63.6049 93.2923C63.3863 93.5109 63.1079 93.6597 62.8048 93.72C62.5017 93.7803 62.1876 93.7493 61.9021 93.631C61.6166 93.5128 61.3725 93.3125 61.2008 93.0556C61.0291 92.7986 60.9375 92.4965 60.9375 92.1875C60.9375 91.7731 61.1021 91.3757 61.3951 91.0826C61.6882 90.7896 62.0856 90.625 62.5 90.625ZM76.5625 81.25C76.8715 81.25 77.1736 81.3416 77.4306 81.5133C77.6875 81.685 77.8878 81.929 78.0061 82.2145C78.1243 82.5001 78.1553 82.8142 78.095 83.1173C78.0347 83.4204 77.8859 83.6988 77.6674 83.9173C77.4488 84.1359 77.1704 84.2847 76.8673 84.345C76.5642 84.4053 76.2501 84.3743 75.9646 84.2561C75.679 84.1378 75.435 83.9375 75.2633 83.6806C75.0916 83.4236 75 83.1215 75 82.8125C75 82.3981 75.1646 82.0007 75.4576 81.7076C75.7507 81.4146 76.1481 81.25 76.5625 81.25ZM68.75 64.0625C68.75 65.3057 68.2561 66.498 67.3771 67.3771C66.498 68.2561 65.3057 68.75 64.0625 68.75H35.9375C34.6943 68.75 33.502 68.2561 32.6229 67.3771C31.7439 66.498 31.25 65.3057 31.25 64.0625V35.9375C31.25 34.6943 31.7439 33.502 32.6229 32.6229C33.502 31.7439 34.6943 31.25 35.9375 31.25H64.0625C65.3057 31.25 66.498 31.7439 67.3771 32.6229C68.2561 33.502 68.75 34.6943 68.75 35.9375V64.0625ZM92.1875 70.3125C91.8785 70.3125 91.5764 70.2209 91.3194 70.0492C91.0625 69.8775 90.8622 69.6334 90.7439 69.3479C90.6257 69.0624 90.5947 68.7483 90.655 68.4452C90.7153 68.1421 90.8641 67.8637 91.0826 67.6451C91.3012 67.4266 91.5796 67.2778 91.8827 67.2175C92.1858 67.1572 92.4999 67.1882 92.7854 67.3064C93.071 67.4247 93.315 67.625 93.4867 67.8819C93.6584 68.1389 93.75 68.441 93.75 68.75C93.75 69.1644 93.5854 69.5618 93.2924 69.8548C92.9993 70.1479 92.6019 70.3125 92.1875 70.3125Z" fill="#6B5E75"/>
</svg>
