<svg width="100" height="100" viewBox="0 0 100 100" fill="none" xmlns="http://www.w3.org/2000/svg">
<path d="M56.4453 79.6309C56.018 79.6309 55.6081 79.8006 55.3059 80.1028C55.0037 80.405 54.834 80.8148 54.834 81.2422V88.334C54.833 88.4758 54.7759 88.6114 54.6753 88.7113C54.5747 88.8111 54.4387 88.8672 54.2969 88.8672H45.7031C45.5607 88.8672 45.4241 88.8106 45.3233 88.7099C45.2226 88.6091 45.166 88.4725 45.166 88.3301V81.25C45.1662 80.8781 45.0378 80.5176 44.8025 80.2296C44.5672 79.9416 44.2395 79.7439 43.875 79.6699C40.039 78.89 36.3908 77.373 33.1328 75.2031C32.8226 74.9987 32.4513 74.9075 32.0817 74.9448C31.7121 74.9822 31.3666 75.1459 31.1035 75.4082L26.0742 80.4258C25.9732 80.5267 25.8362 80.5834 25.6934 80.5834C25.5505 80.5834 25.4136 80.5267 25.3125 80.4258L19.2363 74.3496C19.1359 74.2483 19.0796 74.1114 19.0796 73.9688C19.0796 73.8261 19.1359 73.6892 19.2363 73.5879L24.2617 68.5644C24.5232 68.3006 24.6855 67.9544 24.7211 67.5846C24.7567 67.2148 24.6634 66.8441 24.457 66.5352C22.2871 63.2771 20.7701 59.629 19.9902 55.793C19.9186 55.4283 19.7232 55.0996 19.437 54.8626C19.1508 54.6255 18.7915 54.4947 18.4199 54.4922H11.3281C11.1857 54.4922 11.0491 54.4356 10.9483 54.3349C10.8476 54.2341 10.791 54.0975 10.791 53.9551V45.3613C10.7926 45.2197 10.8498 45.0844 10.9503 44.9846C11.0508 44.8848 11.1865 44.8286 11.3281 44.8281H18.4414C18.8128 44.8283 19.1728 44.7001 19.4605 44.4652C19.7481 44.2302 19.9456 43.903 20.0195 43.5391C20.7954 39.7054 22.3048 36.0578 24.4648 32.7969C24.6716 32.4881 24.7651 32.1173 24.7295 31.7474C24.6939 31.3775 24.5314 31.0313 24.2695 30.7676L19.2363 25.7363C19.1359 25.635 19.0796 25.4981 19.0796 25.3555C19.0796 25.2128 19.1359 25.0759 19.2363 24.9746L25.3125 18.8984C25.4136 18.7975 25.5505 18.7409 25.6934 18.7409C25.8362 18.7409 25.9732 18.7975 26.0742 18.8984L31.0977 23.9238C31.3607 24.1862 31.7062 24.3498 32.0758 24.3872C32.4455 24.4245 32.8167 24.3333 33.127 24.1289C36.3854 21.9598 40.0334 20.4429 43.8691 19.6621C44.2336 19.5882 44.5613 19.3904 44.7966 19.1025C45.0319 18.8145 45.1604 18.4539 45.1602 18.082V10.9902C45.1604 10.9193 45.1747 10.8491 45.2021 10.7836C45.2296 10.7182 45.2697 10.6588 45.3201 10.6089C45.3706 10.559 45.4304 10.5196 45.4961 10.4928C45.5618 10.4661 45.6322 10.4526 45.7031 10.4531H54.2969C54.4392 10.4536 54.5755 10.5104 54.6761 10.611C54.7767 10.7116 54.8335 10.8479 54.834 10.9902V18.082C54.834 18.5094 55.0037 18.9192 55.3059 19.2214C55.6081 19.5236 56.018 19.6934 56.4453 19.6934C56.8727 19.6934 57.2825 19.5236 57.5847 19.2214C57.8869 18.9192 58.0566 18.5094 58.0566 18.082V10.9902C58.0561 9.99288 57.66 9.03647 56.9551 8.33087C56.2502 7.62527 55.2942 7.22811 54.2969 7.22656H45.7031C44.7064 7.22811 43.751 7.62473 43.0463 8.32948C42.3415 9.03424 41.9449 9.98965 41.9434 10.9863V16.7969C38.5997 17.6138 35.4025 18.9426 32.4648 20.7363L28.3516 16.6211C27.6354 15.9374 26.6834 15.556 25.6934 15.556C24.7033 15.556 23.7513 15.9374 23.0352 16.6211L16.959 22.6973C16.2546 23.4026 15.8589 24.3587 15.8589 25.3555C15.8589 26.3523 16.2546 27.3084 16.959 28.0137L21.0605 32.127C19.2799 35.0664 17.9612 38.2618 17.1504 41.6016H11.3281C10.3314 41.6031 9.37604 41.9997 8.67128 42.7045C7.96652 43.4092 7.56991 44.3647 7.56836 45.3613V53.9551C7.56888 54.9524 7.96503 55.9088 8.6699 56.6144C9.37477 57.32 10.3308 57.7172 11.3281 57.7187H17.1309C17.9477 61.0624 19.2766 64.2596 21.0703 67.1973L16.9687 71.3105C16.2643 72.0159 15.8687 72.9719 15.8687 73.9688C15.8687 74.9656 16.2643 75.9216 16.9687 76.627L23.0449 82.7031C23.7604 83.3881 24.7126 83.7705 25.7031 83.7705C26.6936 83.7705 27.6459 83.3881 28.3613 82.7031L32.4746 78.6016C35.4127 80.394 38.6098 81.7221 41.9531 82.5391V88.3418C41.9567 89.3354 42.3529 90.2874 43.0553 90.9902C43.7578 91.693 44.7095 92.0896 45.7031 92.0938H54.2969C55.2936 92.0922 56.249 91.6956 56.9537 90.9908C57.6585 90.2861 58.0551 89.3307 58.0566 88.334V81.25C58.0577 81.0377 58.0168 80.8274 57.9362 80.631C57.8557 80.4346 57.7372 80.256 57.5875 80.1056C57.4377 79.9551 57.2598 79.8357 57.0638 79.7543C56.8677 79.6728 56.6576 79.6309 56.4453 79.6309Z" fill="#6B5E75"/>
<path d="M64.502 36.7715C64.501 34.6347 63.6519 32.5857 62.1413 31.0744C60.6308 29.5631 58.5821 28.713 56.4453 28.711H37.1094C35.4155 28.7063 33.7634 29.2373 32.3893 30.2279C31.0153 31.2186 29.9895 32.6183 29.4587 34.2269C28.9279 35.8356 28.9192 37.5709 29.4339 39.1847C29.9485 40.7986 30.9602 42.2085 32.3243 43.2129C31.3104 43.9542 30.4857 44.9242 29.9172 46.0441C29.3487 47.1641 29.0524 48.4023 29.0524 49.6582C29.0524 50.9142 29.3487 52.1524 29.9172 53.2723C30.4857 54.3922 31.3104 55.3623 32.3243 56.1035C30.9585 57.1074 29.9453 58.5176 29.4297 60.1322C28.914 61.7468 28.9222 63.4832 29.4532 65.0928C29.9842 66.7025 31.0107 68.1029 32.3859 69.0938C33.7611 70.0847 35.4144 70.6152 37.1094 70.6094H56.4453C58.1393 70.6141 59.7914 70.0831 61.1654 69.0924C62.5395 68.1018 63.5652 66.7021 64.096 65.0934C64.6268 63.4848 64.6355 61.7495 64.1209 60.1356C63.6062 58.5217 62.5946 57.1118 61.2305 56.1074C62.2444 55.3662 63.069 54.3962 63.6375 53.2762C64.206 52.1563 64.5023 50.9181 64.5023 49.6621C64.5023 48.4062 64.206 47.168 63.6375 46.048C63.069 44.9281 62.2444 43.9581 61.2305 43.2168C62.2417 42.473 63.0644 41.5025 63.6325 40.3831C64.2007 39.2638 64.4985 38.0268 64.502 36.7715ZM61.2793 62.5528C61.2773 63.8338 60.7672 65.0618 59.861 65.9672C58.9548 66.8727 57.7264 67.3818 56.4453 67.3828H37.1094C35.8274 67.3828 34.5978 66.8735 33.6913 65.967C32.7847 65.0605 32.2754 63.8309 32.2754 62.5489C32.2754 61.2668 32.7847 60.0373 33.6913 59.1307C34.5978 58.2242 35.8274 57.7149 37.1094 57.7149H56.4453C57.7278 57.7159 58.9573 58.2261 59.8637 59.1332C60.7702 60.0404 61.2793 61.2704 61.2793 62.5528ZM61.2793 49.6621C61.2773 50.9432 60.7672 52.1711 59.861 53.0766C58.9548 53.9821 57.7264 54.4912 56.4453 54.4922H37.1094C35.8274 54.4922 34.5978 53.9829 33.6913 53.0764C32.7847 52.1698 32.2754 50.9403 32.2754 49.6582C32.2754 48.3762 32.7847 47.1466 33.6913 46.2401C34.5978 45.3335 35.8274 44.8242 37.1094 44.8242H56.4453C57.7278 44.8253 58.9573 45.3354 59.8637 46.2426C60.7702 47.1498 61.2793 48.3797 61.2793 49.6621ZM56.4453 41.6016H37.1094C35.8274 41.6016 34.5978 41.0923 33.6913 40.1858C32.7847 39.2792 32.2754 38.0497 32.2754 36.7676C32.2754 35.4856 32.7847 34.256 33.6913 33.3495C34.5978 32.4429 35.8274 31.9336 37.1094 31.9336H56.4453C57.7274 31.9336 58.9569 32.4429 59.8635 33.3495C60.77 34.256 61.2793 35.4856 61.2793 36.7676C61.2793 38.0497 60.77 39.2792 59.8635 40.1858C58.9569 41.0923 57.7274 41.6016 56.4453 41.6016Z" fill="#6B5E75"/>
<path d="M54.2969 35.1562H45.7031C45.2758 35.1562 44.8659 35.326 44.5637 35.6282C44.2616 35.9304 44.0918 36.3402 44.0918 36.7676C44.0918 37.1949 44.2616 37.6048 44.5637 37.907C44.8659 38.2091 45.2758 38.3789 45.7031 38.3789H54.2969C54.7242 38.3789 55.1341 38.2091 55.4363 37.907C55.7384 37.6048 55.9082 37.1949 55.9082 36.7676C55.9082 36.3402 55.7384 35.9304 55.4363 35.6282C55.1341 35.326 54.7242 35.1562 54.2969 35.1562Z" fill="#6B5E75"/>
<path d="M39.2578 38.9199C40.4444 38.9199 41.4062 37.958 41.4062 36.7715C41.4062 35.5849 40.4444 34.623 39.2578 34.623C38.0713 34.623 37.1094 35.5849 37.1094 36.7715C37.1094 37.958 38.0713 38.9199 39.2578 38.9199Z" fill="#6B5E75"/>
<path d="M45.7031 51.2734H54.2969C54.7242 51.2734 55.1341 51.1037 55.4363 50.8015C55.7384 50.4993 55.9082 50.0895 55.9082 49.6621C55.9082 49.2348 55.7384 48.8249 55.4363 48.5227C55.1341 48.2205 54.7242 48.0508 54.2969 48.0508H45.7031C45.2758 48.0508 44.8659 48.2205 44.5637 48.5227C44.2616 48.8249 44.0918 49.2348 44.0918 49.6621C44.0918 50.0895 44.2616 50.4993 44.5637 50.8015C44.8659 51.1037 45.2758 51.2734 45.7031 51.2734Z" fill="#6B5E75"/>
<path d="M39.2578 51.8105C40.4444 51.8105 41.4062 50.8487 41.4062 49.6621C41.4062 48.4756 40.4444 47.5137 39.2578 47.5137C38.0713 47.5137 37.1094 48.4756 37.1094 49.6621C37.1094 50.8487 38.0713 51.8105 39.2578 51.8105Z" fill="#6B5E75"/>
<path d="M45.7031 64.1641H54.2969C54.7242 64.1641 55.1341 63.9943 55.4363 63.6921C55.7384 63.3899 55.9082 62.9801 55.9082 62.5527C55.9082 62.1254 55.7384 61.7155 55.4363 61.4134C55.1341 61.1112 54.7242 60.9414 54.2969 60.9414H45.7031C45.2758 60.9414 44.8659 61.1112 44.5637 61.4134C44.2616 61.7155 44.0918 62.1254 44.0918 62.5527C44.0918 62.9801 44.2616 63.3899 44.5637 63.6921C44.8659 63.9943 45.2758 64.1641 45.7031 64.1641Z" fill="#6B5E75"/>
<path d="M39.2578 64.7012C40.4444 64.7012 41.4062 63.7393 41.4062 62.5527C41.4062 61.3662 40.4444 60.4043 39.2578 60.4043C38.0713 60.4043 37.1094 61.3662 37.1094 62.5527C37.1094 63.7393 38.0713 64.7012 39.2578 64.7012Z" fill="#6B5E75"/>
<path d="M62.8906 25.4922C63.1411 25.4927 63.3883 25.4346 63.6124 25.3227C63.8365 25.2108 64.0315 25.0482 64.1816 24.8477L70.1426 16.8985H80.8594C81.2487 18.2701 82.121 19.4547 83.3153 20.2337C84.5095 21.0127 85.9452 21.3335 87.3575 21.137C88.7697 20.9404 90.0633 20.2398 90.9994 19.1643C91.9356 18.0888 92.4513 16.711 92.4513 15.2852C92.4513 13.8593 91.9356 12.4815 90.9994 11.4061C90.0633 10.3306 88.7697 9.62992 87.3575 9.43337C85.9452 9.23682 84.5095 9.55763 83.3153 10.3366C82.121 11.1156 81.2487 12.3002 80.8594 13.6719H69.3359C69.0859 13.6723 68.8393 13.7308 68.6156 13.8426C68.392 13.9545 68.1973 14.1166 68.0469 14.3164L61.6016 22.9102C61.4221 23.1494 61.3128 23.4339 61.2859 23.7318C61.2589 24.0296 61.3154 24.3291 61.449 24.5967C61.5826 24.8643 61.788 25.0894 62.0423 25.2469C62.2965 25.4043 62.5896 25.4879 62.8887 25.4883L62.8906 25.4922ZM86.5234 12.6016C87.0546 12.6016 87.5738 12.7591 88.0154 13.0542C88.4571 13.3493 88.8013 13.7687 89.0046 14.2594C89.2078 14.7501 89.261 15.2901 89.1574 15.811C89.0538 16.332 88.798 16.8105 88.4224 17.1861C88.0468 17.5617 87.5683 17.8174 87.0474 17.9211C86.5264 18.0247 85.9864 17.9715 85.4957 17.7682C85.005 17.565 84.5856 17.2208 84.2905 16.7791C83.9954 16.3375 83.8379 15.8183 83.8379 15.2871C83.8389 14.5752 84.1222 13.8927 84.6256 13.3893C85.129 12.8859 85.8115 12.6026 86.5234 12.6016ZM86.5234 56.6406C85.2404 56.6431 83.9932 57.064 82.971 57.8394C81.9488 58.6149 81.2074 59.7026 80.8594 60.9375H74.0234L70.0664 58.959C69.8771 58.8643 69.671 58.8079 69.4599 58.7929C69.2488 58.7779 69.0369 58.8046 68.8361 58.8716C68.6353 58.9385 68.4497 59.0443 68.2898 59.183C68.1299 59.3216 67.9989 59.4904 67.9043 59.6797C67.8097 59.869 67.7532 60.0751 67.7382 60.2862C67.7232 60.4973 67.7499 60.7092 67.8169 60.91C67.8838 61.1108 67.9896 61.2964 68.1283 61.4563C68.2669 61.6162 68.4357 61.7472 68.625 61.8418L72.9219 63.9902C73.1457 64.1019 73.3924 64.1601 73.6426 64.1602H80.8691C81.1711 65.2147 81.7612 66.1641 82.5731 66.9016C83.385 67.6392 84.3865 68.1356 85.4651 68.3352C86.5437 68.5347 87.6566 68.4295 88.6786 68.0312C89.7007 67.633 90.5914 66.9576 91.2506 66.0809C91.9099 65.2042 92.3115 64.161 92.4103 63.0685C92.5092 61.9761 92.3014 60.8778 91.8102 59.897C91.3191 58.9162 90.5641 58.0918 89.6302 57.5165C88.6962 56.9413 87.6203 56.638 86.5234 56.6406ZM86.5234 65.2344C85.9923 65.2344 85.4731 65.0769 85.0314 64.7818C84.5898 64.4867 84.2456 64.0673 84.0423 63.5766C83.8391 63.0858 83.7859 62.5459 83.8895 62.0249C83.9931 61.504 84.2489 61.0255 84.6245 60.6499C85 60.2743 85.4786 60.0185 85.9995 59.9149C86.5205 59.8113 87.0604 59.8645 87.5512 60.0677C88.0419 60.271 88.4613 60.6152 88.7564 61.0568C89.0515 61.4985 89.209 62.0177 89.209 62.5488C89.2085 63.2609 88.9254 63.9437 88.4218 64.4472C87.9183 64.9508 87.2355 65.2339 86.5234 65.2344ZM86.5234 30.8594C85.2404 30.8618 83.9932 31.2827 82.971 32.0582C81.9488 32.8336 81.2074 33.9213 80.8594 35.1563H73.6328C73.4212 35.1561 73.2117 35.1978 73.0163 35.2789C72.8209 35.36 72.6434 35.479 72.4941 35.6289L70.3457 37.7774C70.0437 38.0793 69.874 38.4889 69.874 38.916C69.874 39.3431 70.0437 39.7527 70.3457 40.0547C70.6477 40.3567 71.0573 40.5264 71.4844 40.5264C71.9115 40.5264 72.321 40.3567 72.623 40.0547L74.3008 38.3789H80.8594C81.1612 39.433 81.7509 40.3821 82.5624 41.1196C83.3739 41.857 84.3749 42.3536 85.453 42.5535C86.5311 42.7534 87.6435 42.6488 88.6655 42.2513C89.6874 41.8539 90.5782 41.1794 91.2379 40.3035C91.8976 39.4277 92.3001 38.3853 92.4 37.2934C92.5 36.2015 92.2935 35.1033 91.8038 34.1223C91.314 33.1412 90.5604 32.3162 89.6277 31.7398C88.6949 31.1634 87.6199 30.8585 86.5234 30.8594ZM86.5234 39.4531C85.9923 39.4531 85.4731 39.2956 85.0314 39.0005C84.5898 38.7054 84.2456 38.286 84.0423 37.7953C83.8391 37.3046 83.7859 36.7646 83.8895 36.2437C83.9931 35.7227 84.2489 35.2442 84.6245 34.8686C85 34.493 85.4786 34.2373 85.9995 34.1336C86.5205 34.03 87.0604 34.0832 87.5512 34.2865C88.0419 34.4897 88.4613 34.8339 88.7564 35.2756C89.0515 35.7172 89.209 36.2364 89.209 36.7676C89.2085 37.4797 88.9254 38.1625 88.4218 38.666C87.9183 39.1695 87.2355 39.4526 86.5234 39.4531ZM86.5234 78.125C85.2404 78.1275 83.9932 78.5484 82.971 79.3238C81.9488 80.0993 81.2074 81.187 80.8594 82.4219H70.1406L64.1797 74.4727C64.0527 74.3034 63.8937 74.1608 63.7116 74.053C63.5295 73.9452 63.328 73.8743 63.1185 73.8443C62.909 73.8144 62.6957 73.826 62.4907 73.8785C62.2857 73.9311 62.0931 74.0234 61.9238 74.1504C61.7545 74.2774 61.6119 74.4364 61.5041 74.6185C61.3963 74.8006 61.3254 75.0021 61.2955 75.2116C61.2656 75.4211 61.2772 75.6344 61.3297 75.8394C61.3822 76.0443 61.4746 76.237 61.6016 76.4063L68.0469 85C68.197 85.2001 68.3916 85.3626 68.6153 85.4744C68.8391 85.5863 69.0858 85.6445 69.3359 85.6445H80.8594C81.1612 86.6987 81.7509 87.6478 82.5624 88.3852C83.3739 89.1226 84.3749 89.6192 85.453 89.8191C86.5311 90.0191 87.6435 89.9144 88.6655 89.517C89.6874 89.1195 90.5782 88.445 91.2379 87.5692C91.8976 86.6933 92.3001 85.6509 92.4 84.559C92.5 83.4671 92.2935 82.3689 91.8038 81.3879C91.314 80.4069 90.5604 79.5818 89.6277 79.0054C88.6949 78.429 87.6199 78.1241 86.5234 78.125ZM86.5234 86.7188C85.9923 86.7188 85.4731 86.5613 85.0314 86.2662C84.5898 85.9711 84.2456 85.5517 84.0423 85.0609C83.8391 84.5702 83.7859 84.0302 83.8895 83.5093C83.9931 82.9883 84.2489 82.5098 84.6245 82.1342C85 81.7587 85.4786 81.5029 85.9995 81.3993C86.5205 81.2956 87.0604 81.3488 87.5512 81.5521C88.0419 81.7554 88.4613 82.0996 88.7564 82.5412C89.0515 82.9828 89.209 83.5021 89.209 84.0332C89.2085 84.7453 88.9254 85.4281 88.4218 85.9316C87.9183 86.4351 87.2355 86.7182 86.5234 86.7188Z" fill="#6B5E75"/>
</svg>
