<svg width="100" height="100" viewBox="0 0 100 100" fill="none" xmlns="http://www.w3.org/2000/svg">
<g clip-path="url(#clip0_97_1824)">
<path d="M98.5352 7.22656H1.46484C1.07634 7.22656 0.703754 7.38089 0.429043 7.6556C0.154331 7.93032 0 8.30291 0 8.69141L0 12.565C0 13.3742 0.655859 14.0299 1.46484 14.0299C2.27383 14.0299 2.92969 13.3742 2.92969 12.565V10.1562H97.0703V68.9453H93.815C93.0061 68.9453 92.3502 69.601 92.3502 70.4102C92.3502 71.2193 93.0061 71.875 93.815 71.875H98.5352C98.9237 71.875 99.2962 71.7207 99.571 71.446C99.8457 71.1712 100 70.7987 100 70.4102V8.69141C100 8.30291 99.8457 7.93032 99.571 7.6556C99.2962 7.38089 98.9237 7.22656 98.5352 7.22656Z" fill="#6B5E75"/>
<path d="M92.6758 13.0859H7.32422C6.93572 13.0859 6.56313 13.2403 6.28842 13.515C6.01371 13.7897 5.85938 14.1623 5.85938 14.5508V64.5508C5.85938 64.9393 6.01371 65.3119 6.28842 65.5866C6.56313 65.8613 6.93572 66.0156 7.32422 66.0156H92.6758C93.0643 66.0156 93.4369 65.8613 93.7116 65.5866C93.9863 65.3119 94.1406 64.9393 94.1406 64.5508V14.5508C94.1406 14.1623 93.9863 13.7897 93.7116 13.515C93.4369 13.2403 93.0643 13.0859 92.6758 13.0859ZM91.2109 63.0859H8.78906V52.8008H22.4438C23.0666 54.4711 24.6777 55.6641 26.5625 55.6641C28.9857 55.6641 30.957 53.6926 30.957 51.2695C30.957 49.8566 30.2859 48.598 29.2467 47.7938L30.9973 42.3828H42.3828C42.7713 42.3828 43.1439 42.2285 43.4186 41.9538C43.6933 41.6791 43.8477 41.3065 43.8477 40.918V40.625H48.2422C48.6307 40.625 49.0033 40.4707 49.278 40.196C49.5527 39.9212 49.707 39.5487 49.707 39.1602V27.4414C49.707 27.0529 49.5527 26.6803 49.278 26.4056C49.0033 26.1309 48.6307 25.9766 48.2422 25.9766H43.8477V25.6836C43.8477 25.2951 43.6933 24.9225 43.4186 24.6478C43.1439 24.3731 42.7713 24.2188 42.3828 24.2188H16.2109C15.8224 24.2188 15.4498 24.3731 15.1751 24.6478C14.9004 24.9225 14.7461 25.2951 14.7461 25.6836V40.918C14.7461 41.3065 14.9004 41.6791 15.1751 41.9538C15.4498 42.2285 15.8224 42.3828 16.2109 42.3828H27.9182L26.4641 46.8775C24.5727 46.9195 22.9732 48.1615 22.3975 49.8711H8.78906V16.0156H91.2109V63.0859ZM25.0977 51.2695C25.0977 50.4617 25.7547 49.8047 26.5625 49.8047C27.3703 49.8047 28.0273 50.4617 28.0273 51.2695C28.0273 52.0773 27.3703 52.7344 26.5625 52.7344C25.7547 52.7344 25.0977 52.0773 25.0977 51.2695ZM17.6758 39.4531V27.1484H40.918V39.4531H17.6758ZM43.8477 37.6953V28.9062H46.7773V37.6953H43.8477Z" fill="#6B5E75"/>
<path d="M81.6406 20.7031H58.9844C58.5959 20.7031 58.2233 20.8575 57.9486 21.1322C57.6739 21.4069 57.5195 21.7795 57.5195 22.168V31.1523C57.5195 31.5408 57.6739 31.9134 57.9486 32.1881C58.2233 32.4629 58.5959 32.6172 58.9844 32.6172H81.6406C82.0291 32.6172 82.4017 32.4629 82.6764 32.1881C82.9511 31.9134 83.1055 31.5408 83.1055 31.1523V22.168C83.1055 21.7795 82.9511 21.4069 82.6764 21.1322C82.4017 20.8575 82.0291 20.7031 81.6406 20.7031ZM80.1758 29.6875H60.4492V23.6328H80.1758V29.6875ZM81.6406 33.9844H58.9844C58.5959 33.9844 58.2233 34.1387 57.9486 34.4134C57.6739 34.6881 57.5195 35.0607 57.5195 35.4492V44.4336C57.5195 44.8221 57.6739 45.1947 57.9486 45.4694C58.2233 45.7441 58.5959 45.8984 58.9844 45.8984H81.6406C82.0291 45.8984 82.4017 45.7441 82.6764 45.4694C82.9511 45.1947 83.1055 44.8221 83.1055 44.4336V35.4492C83.1055 35.0607 82.9511 34.6881 82.6764 34.4134C82.4017 34.1387 82.0291 33.9844 81.6406 33.9844ZM80.1758 42.9688H60.4492V36.9141H80.1758V42.9688ZM81.6406 46.875H58.9844C58.5959 46.875 58.2233 47.0293 57.9486 47.304C57.6739 47.5788 57.5195 47.9513 57.5195 48.3398V57.3242C57.5195 57.7127 57.6739 58.0853 57.9486 58.36C58.2233 58.6347 58.5959 58.7891 58.9844 58.7891H81.6406C82.0291 58.7891 82.4017 58.6347 82.6764 58.36C82.9511 58.0853 83.1055 57.7127 83.1055 57.3242V48.3398C83.1055 47.9513 82.9511 47.5788 82.6764 47.304C82.4017 47.0293 82.0291 46.875 81.6406 46.875ZM80.1758 55.8594H60.4492V49.8047H80.1758V55.8594Z" fill="#6B5E75"/>
<path d="M98.5352 76.1718H85.2539C84.8654 76.1718 84.4928 76.3261 84.2181 76.6008C83.9434 76.8755 83.7891 77.2481 83.7891 77.6366V83.203H51.5625V71.8749H87.565C88.374 71.8749 89.0299 71.2192 89.0299 70.4101C89.0299 69.6009 88.374 68.9452 87.565 68.9452H2.92969V18.8149C2.92969 18.0058 2.27383 17.3501 1.46484 17.3501C0.655859 17.3501 0 18.0058 0 18.8149V70.4101C0 70.7986 0.154331 71.1712 0.429043 71.4459C0.703754 71.7206 1.07634 71.8749 1.46484 71.8749H48.6328V83.203H31.2988C30.4898 83.203 29.834 83.8587 29.834 84.6679C29.834 85.4771 30.4898 86.1327 31.2988 86.1327H83.7891V91.3085C83.7891 91.697 83.9434 92.0696 84.2181 92.3443C84.4928 92.619 84.8654 92.7733 85.2539 92.7733H98.5352C98.9237 92.7733 99.2962 92.619 99.571 92.3443C99.8457 92.0696 100 91.697 100 91.3085V77.6366C100 77.2481 99.8457 76.8755 99.571 76.6008C99.2962 76.3261 98.9237 76.1718 98.5352 76.1718ZM97.0703 89.8437H86.7188V79.1015H97.0703V89.8437ZM69.3914 25.1952H62.7729C61.9639 25.1952 61.308 25.8509 61.308 26.6601C61.308 27.4692 61.9639 28.1249 62.7729 28.1249H69.3914C70.2004 28.1249 70.8562 27.4692 70.8562 26.6601C70.8562 25.8509 70.2004 25.1952 69.3914 25.1952Z" fill="#6B5E75"/>
<path d="M73.3086 28.125C74.1176 28.125 74.7734 27.4692 74.7734 26.6602C74.7734 25.8511 74.1176 25.1953 73.3086 25.1953C72.4996 25.1953 71.8438 25.8511 71.8438 26.6602C71.8438 27.4692 72.4996 28.125 73.3086 28.125Z" fill="#6B5E75"/>
<path d="M69.391 38.4766H62.7725C61.9635 38.4766 61.3076 39.1322 61.3076 39.9414C61.3076 40.7506 61.9635 41.4062 62.7725 41.4062H69.391C70.2 41.4062 70.8559 40.7506 70.8559 39.9414C70.8559 39.1322 70.2 38.4766 69.391 38.4766Z" fill="#6B5E75"/>
<path d="M73.3086 41.4062C74.1176 41.4062 74.7734 40.7504 74.7734 39.9414C74.7734 39.1324 74.1176 38.4766 73.3086 38.4766C72.4996 38.4766 71.8438 39.1324 71.8438 39.9414C71.8438 40.7504 72.4996 41.4062 73.3086 41.4062Z" fill="#6B5E75"/>
<path d="M69.391 51.3672H62.7725C61.9635 51.3672 61.3076 52.0229 61.3076 52.832C61.3076 53.6412 61.9635 54.2969 62.7725 54.2969H69.391C70.2 54.2969 70.8559 53.6412 70.8559 52.832C70.8559 52.0229 70.2 51.3672 69.391 51.3672Z" fill="#6B5E75"/>
<path d="M73.3086 54.2969C74.1176 54.2969 74.7734 53.641 74.7734 52.832C74.7734 52.023 74.1176 51.3672 73.3086 51.3672C72.4996 51.3672 71.8438 52.023 71.8438 52.832C71.8438 53.641 72.4996 54.2969 73.3086 54.2969Z" fill="#6B5E75"/>
<path d="M25.0977 83.2031H16.2109V77.6367C16.2109 77.2482 16.0566 76.8756 15.7819 76.6009C15.5072 76.3262 15.1346 76.1719 14.7461 76.1719H1.46484C1.07634 76.1719 0.703754 76.3262 0.429043 76.6009C0.154331 76.8756 0 77.2482 0 77.6367L0 91.3086C0 91.6971 0.154331 92.0697 0.429043 92.3444C0.703754 92.6191 1.07634 92.7734 1.46484 92.7734H14.7461C15.1346 92.7734 15.5072 92.6191 15.7819 92.3444C16.0566 92.0697 16.2109 91.6971 16.2109 91.3086V86.1328H25.0977C25.9066 86.1328 26.5625 85.4771 26.5625 84.668C26.5625 83.8588 25.9066 83.2031 25.0977 83.2031ZM13.2812 89.8438H2.92969V79.1016H13.2812V89.8438ZM93.457 80.3711H90.5273C89.7184 80.3711 89.0625 81.0268 89.0625 81.8359C89.0625 82.6451 89.7184 83.3008 90.5273 83.3008H93.457C94.266 83.3008 94.9219 82.6451 94.9219 81.8359C94.9219 81.0268 94.266 80.3711 93.457 80.3711ZM93.457 85.4492H90.5273C89.7184 85.4492 89.0625 86.1049 89.0625 86.9141C89.0625 87.7232 89.7184 88.3789 90.5273 88.3789H93.457C94.266 88.3789 94.9219 87.7232 94.9219 86.9141C94.9219 86.1049 94.266 85.4492 93.457 85.4492Z" fill="#6B5E75"/>
<path d="M9.66797 80.3711H6.73828C5.9293 80.3711 5.27344 81.0268 5.27344 81.8359C5.27344 82.6451 5.9293 83.3008 6.73828 83.3008H9.66797C10.477 83.3008 11.1328 82.6451 11.1328 81.8359C11.1328 81.0268 10.477 80.3711 9.66797 80.3711ZM9.66797 85.4492H6.73828C5.9293 85.4492 5.27344 86.1049 5.27344 86.9141C5.27344 87.7232 5.9293 88.3789 6.73828 88.3789H9.66797C10.477 88.3789 11.1328 87.7232 11.1328 86.9141C11.1328 86.1049 10.477 85.4492 9.66797 85.4492Z" fill="#6B5E75"/>
</g>
<defs>
<clipPath id="clip0_97_1824">
<rect width="100" height="100" fill="white"/>
</clipPath>
</defs>
</svg>
